<mxfile host="app.diagrams.net" modified="2024-02-29T12:54:20.573Z" agent="Mozilla/5.0 (Macintosh; Intel Mac OS X 10.15; rv:123.0) Gecko/20100101 Firefox/123.0" etag="4fpItREKArcpBezwY5Zo" version="23.1.6" type="github">
  <diagram name="ページ1" id="EXOG4_J6JaKcaoNi_mB1">
    <mxGraphModel dx="1434" dy="794" grid="1" gridSize="10" guides="1" tooltips="1" connect="1" arrows="1" fold="1" page="1" pageScale="1" pageWidth="827" pageHeight="1169" math="0" shadow="0">
      <root>
        <mxCell id="0" />
        <mxCell id="1" parent="0" />
        <mxCell id="UjU70locFbuu_EcWMkwr-9" value="GND" style="edgeStyle=orthogonalEdgeStyle;rounded=0;orthogonalLoop=1;jettySize=auto;html=1;exitX=0;exitY=0.5;exitDx=0;exitDy=0;exitPerimeter=0;entryX=0;entryY=0.75;entryDx=0;entryDy=0;endArrow=none;endFill=0;" edge="1" parent="1" source="UjU70locFbuu_EcWMkwr-1" target="UjU70locFbuu_EcWMkwr-2">
          <mxGeometry x="0.8519" relative="1" as="geometry">
            <mxPoint as="offset" />
          </mxGeometry>
        </mxCell>
        <mxCell id="UjU70locFbuu_EcWMkwr-32" value="0V" style="edgeLabel;html=1;align=center;verticalAlign=middle;resizable=0;points=[];" vertex="1" connectable="0" parent="UjU70locFbuu_EcWMkwr-9">
          <mxGeometry x="-0.8321" y="3" relative="1" as="geometry">
            <mxPoint as="offset" />
          </mxGeometry>
        </mxCell>
        <mxCell id="UjU70locFbuu_EcWMkwr-1" value="" style="verticalLabelPosition=bottom;shadow=0;dashed=0;align=center;fillColor=strokeColor;html=1;verticalAlign=top;strokeWidth=1;shape=mxgraph.electrical.miscellaneous.monocell_battery;" vertex="1" parent="1">
          <mxGeometry x="180" y="150" width="100" height="60" as="geometry" />
        </mxCell>
        <mxCell id="UjU70locFbuu_EcWMkwr-4" style="edgeStyle=orthogonalEdgeStyle;rounded=0;orthogonalLoop=1;jettySize=auto;html=1;exitX=1;exitY=0.5;exitDx=0;exitDy=0;entryX=0;entryY=0.5;entryDx=0;entryDy=0;endArrow=none;endFill=0;" edge="1" parent="1" source="UjU70locFbuu_EcWMkwr-2" target="UjU70locFbuu_EcWMkwr-3">
          <mxGeometry relative="1" as="geometry" />
        </mxCell>
        <mxCell id="UjU70locFbuu_EcWMkwr-27" value="SCL" style="edgeLabel;html=1;align=center;verticalAlign=middle;resizable=0;points=[];" vertex="1" connectable="0" parent="UjU70locFbuu_EcWMkwr-4">
          <mxGeometry x="-0.0364" y="2" relative="1" as="geometry">
            <mxPoint as="offset" />
          </mxGeometry>
        </mxCell>
        <mxCell id="UjU70locFbuu_EcWMkwr-5" style="edgeStyle=orthogonalEdgeStyle;rounded=0;orthogonalLoop=1;jettySize=auto;html=1;exitX=1;exitY=0.75;exitDx=0;exitDy=0;entryX=0;entryY=0.75;entryDx=0;entryDy=0;endArrow=none;endFill=0;" edge="1" parent="1" source="UjU70locFbuu_EcWMkwr-2" target="UjU70locFbuu_EcWMkwr-3">
          <mxGeometry relative="1" as="geometry" />
        </mxCell>
        <mxCell id="UjU70locFbuu_EcWMkwr-28" value="SDA" style="edgeLabel;html=1;align=center;verticalAlign=middle;resizable=0;points=[];" vertex="1" connectable="0" parent="UjU70locFbuu_EcWMkwr-5">
          <mxGeometry x="0.0182" y="-4" relative="1" as="geometry">
            <mxPoint as="offset" />
          </mxGeometry>
        </mxCell>
        <mxCell id="UjU70locFbuu_EcWMkwr-23" style="edgeStyle=orthogonalEdgeStyle;rounded=0;orthogonalLoop=1;jettySize=auto;html=1;exitX=0.75;exitY=1;exitDx=0;exitDy=0;entryX=0;entryY=0.25;entryDx=0;entryDy=0;endArrow=none;endFill=0;" edge="1" parent="1" source="UjU70locFbuu_EcWMkwr-2" target="UjU70locFbuu_EcWMkwr-6">
          <mxGeometry relative="1" as="geometry" />
        </mxCell>
        <mxCell id="UjU70locFbuu_EcWMkwr-25" value="MOSI" style="edgeLabel;html=1;align=center;verticalAlign=middle;resizable=0;points=[];" vertex="1" connectable="0" parent="UjU70locFbuu_EcWMkwr-23">
          <mxGeometry x="0.3171" y="5" relative="1" as="geometry">
            <mxPoint as="offset" />
          </mxGeometry>
        </mxCell>
        <mxCell id="UjU70locFbuu_EcWMkwr-24" style="edgeStyle=orthogonalEdgeStyle;rounded=0;orthogonalLoop=1;jettySize=auto;html=1;exitX=0.5;exitY=1;exitDx=0;exitDy=0;entryX=0;entryY=0.75;entryDx=0;entryDy=0;endArrow=none;endFill=0;" edge="1" parent="1" source="UjU70locFbuu_EcWMkwr-2" target="UjU70locFbuu_EcWMkwr-6">
          <mxGeometry relative="1" as="geometry" />
        </mxCell>
        <mxCell id="UjU70locFbuu_EcWMkwr-26" value="MISO" style="edgeLabel;html=1;align=center;verticalAlign=middle;resizable=0;points=[];" vertex="1" connectable="0" parent="UjU70locFbuu_EcWMkwr-24">
          <mxGeometry x="0.5094" y="-1" relative="1" as="geometry">
            <mxPoint as="offset" />
          </mxGeometry>
        </mxCell>
        <mxCell id="UjU70locFbuu_EcWMkwr-2" value="raaspberrypi pico" style="rounded=0;whiteSpace=wrap;html=1;" vertex="1" parent="1">
          <mxGeometry x="330" y="350" width="120" height="60" as="geometry" />
        </mxCell>
        <mxCell id="UjU70locFbuu_EcWMkwr-3" value="gyro" style="rounded=0;whiteSpace=wrap;html=1;" vertex="1" parent="1">
          <mxGeometry x="530" y="350" width="120" height="60" as="geometry" />
        </mxCell>
        <mxCell id="UjU70locFbuu_EcWMkwr-6" value="sd card" style="rounded=0;whiteSpace=wrap;html=1;" vertex="1" parent="1">
          <mxGeometry x="550" y="470" width="120" height="60" as="geometry" />
        </mxCell>
        <mxCell id="UjU70locFbuu_EcWMkwr-8" style="edgeStyle=orthogonalEdgeStyle;rounded=0;orthogonalLoop=1;jettySize=auto;html=1;exitX=1;exitY=0.5;exitDx=0;exitDy=0;exitPerimeter=0;entryX=0;entryY=0.5;entryDx=0;entryDy=0;endArrow=none;endFill=0;" edge="1" parent="1" source="UjU70locFbuu_EcWMkwr-1" target="UjU70locFbuu_EcWMkwr-2">
          <mxGeometry relative="1" as="geometry">
            <mxPoint x="300" y="360" as="targetPoint" />
          </mxGeometry>
        </mxCell>
        <mxCell id="UjU70locFbuu_EcWMkwr-30" value="Vcc" style="edgeLabel;html=1;align=center;verticalAlign=middle;resizable=0;points=[];" vertex="1" connectable="0" parent="UjU70locFbuu_EcWMkwr-8">
          <mxGeometry x="0.496" y="4" relative="1" as="geometry">
            <mxPoint as="offset" />
          </mxGeometry>
        </mxCell>
        <mxCell id="UjU70locFbuu_EcWMkwr-11" value="" style="html=1;shape=mxgraph.electrical.electro-mechanical.singleSwitch;aspect=fixed;elSwitchState=off;" vertex="1" parent="1">
          <mxGeometry x="280" y="90" width="75" height="20" as="geometry" />
        </mxCell>
        <mxCell id="UjU70locFbuu_EcWMkwr-19" style="edgeStyle=orthogonalEdgeStyle;rounded=0;orthogonalLoop=1;jettySize=auto;html=1;entryX=1;entryY=0.8;entryDx=0;entryDy=0;endArrow=none;endFill=0;" edge="1" parent="1" source="UjU70locFbuu_EcWMkwr-15" target="UjU70locFbuu_EcWMkwr-11">
          <mxGeometry relative="1" as="geometry" />
        </mxCell>
        <mxCell id="UjU70locFbuu_EcWMkwr-15" value="" style="pointerEvents=1;verticalLabelPosition=bottom;shadow=0;dashed=0;align=center;html=1;verticalAlign=top;shape=mxgraph.electrical.resistors.resistor_2;" vertex="1" parent="1">
          <mxGeometry x="430" y="230" width="100" height="20" as="geometry" />
        </mxCell>
        <mxCell id="UjU70locFbuu_EcWMkwr-18" style="edgeStyle=orthogonalEdgeStyle;rounded=0;orthogonalLoop=1;jettySize=auto;html=1;exitX=1;exitY=0.5;exitDx=0;exitDy=0;exitPerimeter=0;entryX=1;entryY=0.5;entryDx=0;entryDy=0;entryPerimeter=0;endArrow=none;endFill=0;" edge="1" parent="1" source="UjU70locFbuu_EcWMkwr-15" target="UjU70locFbuu_EcWMkwr-1">
          <mxGeometry relative="1" as="geometry" />
        </mxCell>
        <mxCell id="UjU70locFbuu_EcWMkwr-31" value="5V" style="edgeLabel;html=1;align=center;verticalAlign=middle;resizable=0;points=[];" vertex="1" connectable="0" parent="UjU70locFbuu_EcWMkwr-18">
          <mxGeometry x="0.92" y="1" relative="1" as="geometry">
            <mxPoint as="offset" />
          </mxGeometry>
        </mxCell>
        <mxCell id="UjU70locFbuu_EcWMkwr-20" style="edgeStyle=orthogonalEdgeStyle;rounded=0;orthogonalLoop=1;jettySize=auto;html=1;exitX=0.25;exitY=0;exitDx=0;exitDy=0;entryX=0;entryY=0.5;entryDx=0;entryDy=0;entryPerimeter=0;endArrow=none;endFill=0;" edge="1" parent="1" source="UjU70locFbuu_EcWMkwr-2" target="UjU70locFbuu_EcWMkwr-15">
          <mxGeometry relative="1" as="geometry" />
        </mxCell>
        <mxCell id="UjU70locFbuu_EcWMkwr-22" value="GPIO" style="edgeLabel;html=1;align=center;verticalAlign=middle;resizable=0;points=[];" vertex="1" connectable="0" parent="UjU70locFbuu_EcWMkwr-20">
          <mxGeometry x="-0.8111" relative="1" as="geometry">
            <mxPoint as="offset" />
          </mxGeometry>
        </mxCell>
        <mxCell id="UjU70locFbuu_EcWMkwr-21" style="edgeStyle=orthogonalEdgeStyle;rounded=0;orthogonalLoop=1;jettySize=auto;html=1;exitX=0;exitY=0.8;exitDx=0;exitDy=0;entryX=0;entryY=0.5;entryDx=0;entryDy=0;entryPerimeter=0;endArrow=none;endFill=0;" edge="1" parent="1" source="UjU70locFbuu_EcWMkwr-11" target="UjU70locFbuu_EcWMkwr-1">
          <mxGeometry relative="1" as="geometry" />
        </mxCell>
      </root>
    </mxGraphModel>
  </diagram>
</mxfile>
